<svg width="13" height="11" viewBox="0 0 13 11" fill="none" xmlns="http://www.w3.org/2000/svg">
<path d="M9.19638 5.6602H6.72791V7.77608H9.19638V5.6602ZM8.70269 1.00525V1.8516H4.75314V1.00525H3.76575V1.8516H3.27206C3.14264 1.85166 3.01451 1.87362 2.89502 1.91622C2.77553 1.95883 2.66703 2.02124 2.57575 2.09987C2.48447 2.17851 2.41221 2.27182 2.3631 2.37446C2.314 2.47709 2.28902 2.58703 2.2896 2.69796L2.28467 8.62244C2.28467 8.8469 2.3887 9.06218 2.57387 9.2209C2.75904 9.37962 3.01018 9.46879 3.27206 9.46879H10.1838C10.4454 9.46812 10.6961 9.37874 10.8811 9.22016C11.0661 9.06158 11.1704 8.8467 11.1712 8.62244V2.69796C11.1704 2.4737 11.0661 2.25881 10.8811 2.10023C10.6961 1.94166 10.4454 1.85227 10.1838 1.8516H9.69007V1.00525H8.70269ZM10.1838 8.62244H3.27206V3.96749H10.1838V8.62244Z" fill="white"/>
</svg>
