<svg width="512" height="61" viewBox="0 0 512 61" fill="none" xmlns="http://www.w3.org/2000/svg">
<path d="M1.07745 59.5508L3.54592 56.1654L5.5207 54.4727L7.49547 55.319H10.9513L15.3946 58.2813L18.3567 57.0117L20.3315 53.2031L23.2937 56.1654L25.7621 54.4727L27.7369 56.1654L30.2054 55.319L32.6739 57.0117L35.636 53.2031L38.1045 56.1654L40.573 57.0117L45.5099 55.319L47.4847 56.1654H50.4468L52.4216 58.2813L55.3838 59.5508L57.8522 56.1654L60.8144 58.2813L62.7892 57.4349L67.7261 58.2813L70.1946 53.2031L72.1693 56.1654H75.1315L78.0937 49.8177L80.0684 51.9336L82.5369 48.9714L85.4991 51.9336L87.9675 49.8177L89.4486 53.2031L92.4108 55.319L95.373 54.4727L97.3477 48.125L99.8162 56.1654L102.778 51.0872H104.753L107.222 51.9336L109.69 49.8177L112.652 51.9336L115.121 49.8177L117.095 51.9336L119.564 50.2409L122.526 54.4727L124.501 53.2031L126.969 58.2813L134.868 46.8555L136.843 53.2031L139.805 50.2409L142.274 55.319L144.742 47.2786L147.211 51.9336L149.679 48.125L154.616 54.4727L157.085 56.1654L162.022 48.9714L164.984 54.4727L166.959 51.0872L169.427 54.4727L181.276 35.4297L187.2 48.9714L192.137 51.0872L195.099 45.1628L198.061 48.125L204.479 36.6992L212.378 48.9714L216.328 45.1628L217.315 48.125L221.759 42.2005L225.708 48.125L229.164 47.2786L231.139 45.1628L233.113 48.125L236.076 48.9714L239.038 57.8581L245.456 22.7344L255.823 51.0872L258.786 53.2031L261.254 46.0091L263.229 50.2409H266.191L268.659 47.2786L273.103 35.4297L275.571 35.8529L278.04 30.7747L280.508 35.4297L282.977 38.3919H285.939L290.876 31.6211L292.85 36.6992L295.813 31.6211L298.281 39.6615L300.256 29.9284H302.724L305.686 39.2383L308.155 32.4674L310.13 43.0469L313.092 38.3919H315.56L318.029 32.4674L319.51 34.1602L322.966 31.6211L327.903 45.1628L330.371 34.1602L335.308 10.4622L342.714 39.6615L344.688 37.9688L347.65 38.3919L349.625 35.8529L352.587 36.6992L355.056 18.9258L357.524 22.7344L364.93 21.4648L369.373 28.6589L371.841 20.6185L375.297 27.3893L377.272 18.9258L379.741 16.8099L382.209 26.1198L385.171 24.8503L387.64 26.1198L390.108 22.7344L392.083 10.4622L394.551 26.1198L397.514 30.7747L399.982 21.4648L401.957 24.0039L404.425 32.4674L407.387 29.9284L409.362 16.8099L411.337 26.1198L413.805 24.8503L416.274 28.6589L419.73 18.9258L422.198 18.0794L424.667 15.1172L426.641 24.0039L429.604 19.7721L432.072 26.1198L434.541 24.0039L436.515 18.0794L438.984 19.7721L441.946 10.8854L443.921 24.0039L446.883 29.9284L449.351 22.7344L451.326 24.8503L454.288 22.3112L456.757 29.9284L459.225 18.9258L461.2 19.7721H464.162L466.631 10.4622L467.618 22.3112L471.568 11.3086L474.036 15.5404L476.011 24.0039L478.973 28.6589L481.441 18.0794L483.416 19.7721L486.378 1.15234L488.847 15.1172L491.315 13.0013L493.784 1.9987L498.721 4.53776L501.189 10.0391L503.164 19.7721L506.126 10.4622L508.595 15.5404L511.063 7.07682" stroke="#5388D8" stroke-linecap="round" stroke-linejoin="round"/>
</svg>
