<svg width="520" height="35" viewBox="0 0 520 35" fill="none" xmlns="http://www.w3.org/2000/svg">
<rect x="11.0081" y="0.791626" width="498.618" height="24.3906" stroke="white"/>
<line x1="147.255" y1="24.8359" x2="147.255" y2="1.13802" stroke="#555555"/>
<line x1="260.804" y1="24.8359" x2="260.804" y2="1.13802" stroke="#555555"/>
<line x1="374.354" y1="24.8359" x2="374.354" y2="1.13802" stroke="#555555"/>
<line x1="487.904" y1="24.8359" x2="487.904" y2="1.13802" stroke="#555555"/>
<line x1="33.7054" y1="24.8359" x2="33.7054" y2="1.13802" stroke="#555555"/>
<path d="M508.645 7.06246L507.164 5.36975L501.733 4.5234L499.759 7.48564L497.29 8.33199L494.822 4.10022L491.859 10.0247L489.391 9.17834L486.922 12.5638L484.454 11.2942L482.479 8.33199L480.011 7.06246L477.542 12.5638L475.074 7.06246L472.605 10.0247L467.668 9.60152L464.706 12.5638L463.225 10.8711L460.263 11.2942L457.795 10.8711L455.326 12.5638L452.858 10.8711L450.389 7.06246L447.921 9.60152L445.452 9.17834L443.477 10.8711L440.515 11.7174L438.047 10.0247L435.578 10.8711L433.11 8.33199L428.173 9.60152L425.704 12.5638L423.73 11.2942L421.261 11.7174L418.299 9.17834L416.324 12.9869L413.362 13.4101L411.387 10.8711L408.919 10.0247L405.957 12.9869L403.488 11.7174L401.513 7.06246L399.045 10.8711L396.083 11.7174L394.108 10.8711L391.64 11.7174L389.171 9.17834L386.703 9.60152L383.74 11.7174L381.766 10.0247L379.297 12.5638L373.867 10.0247L366.955 10.8711L364.486 9.60152L362.018 14.6796H359.056L357.081 15.526L354.613 15.1028L352.144 15.526L349.676 12.9869L347.701 15.1028L345.232 15.526L342.764 14.2565H339.802L337.333 17.6419L332.89 13.4101L329.928 14.2565L327.953 13.4101L324.991 15.526H322.522L320.548 16.3724L318.079 13.4101L315.611 15.526L313.142 12.9869H310.674L308.205 15.526L305.737 13.4101L303.268 14.2565L301.294 12.9869L294.382 15.526L288.458 12.9869L285.495 14.2565H284.014L278.09 18.0651L273.647 18.9114L271.178 17.6419L268.71 19.7578L266.735 18.9114L263.773 19.3346L261.798 18.0651L259.33 18.9114L256.368 17.6419L254.393 18.0651L251.924 17.6419L249.456 20.1809L246.494 18.0651H244.025L241.557 16.7955L236.62 18.0651L234.151 19.3346H231.683L224.277 16.7955L222.303 18.0651L220.328 16.7955L217.366 18.0651L212.922 16.7955L209.467 18.0651L206.998 16.7955L204.53 18.9114H202.061L200.086 17.6419L197.618 18.0651L195.15 17.6419L192.681 20.1809L188.238 18.0651L181.326 20.1809L177.87 18.9114L175.402 19.7578L172.933 18.0651L167.996 20.1809H165.528L162.072 18.0651L159.11 19.3346L156.148 18.0651L154.173 20.1809L151.211 18.0651L148.742 19.7578L146.274 18.0651L138.375 21.0273L136.4 19.3346L133.931 20.1809L131.463 18.0651L128.995 19.3346L126.526 18.9114H123.564L121.589 18.0651L118.627 18.9114H114.677L112.209 20.1809L109.247 18.0651L106.778 19.7578L103.322 20.1809L100.36 18.0651L97.8918 19.3346L95.4234 18.0651L91.9675 19.7578L89.9927 18.0651L87.5243 21.0273L82.5873 19.3346L80.1189 21.0273H73.2072L69.7513 20.1809L67.2828 21.4505L62.3459 20.1809L57.9027 19.7578L51.4846 21.0273L48.0288 19.3346L45.0666 20.1809L41.1171 21.0273L38.6486 19.7578L35.6864 20.1809L32.7243 19.7578L28.281 21.0273L24.3315 20.1809H21.863L18.4072 19.7578L13.9639 21.0273L11.9891 21.8737" stroke="#5388D8" stroke-linecap="round" stroke-linejoin="round"/>
<rect width="6.91171" height="10.1562" transform="translate(510.126 7.90881)" fill="white"/>
<line x1="512.601" y1="10.4479" x2="512.601" y2="15.526" stroke="white"/>
<line x1="514.576" y1="10.4479" x2="514.576" y2="15.526" stroke="white"/>
<rect width="6.91171" height="10.1562" transform="translate(3.59637 7.90881)" fill="white"/>
<line x1="6.07117" y1="10.4479" x2="6.07117" y2="15.526" stroke="white"/>
<line x1="8.0459" y1="10.4479" x2="8.0459" y2="15.526" stroke="white"/>
<rect width="9.87387" height="8.46354" transform="translate(510.126 25.6823)" fill="white"/>
<path d="M514.24 31.6772L516.297 29.914L514.24 28.1508V31.6772Z" fill="white"/>
<rect width="9.87387" height="8.46354" transform="translate(0.634216 25.6823)" fill="white"/>
<path d="M6.39398 28.1508L4.33693 29.914L6.39398 31.6772V28.1508Z" fill="white"/>
<rect width="497.643" height="8.46354" transform="translate(11.4955 25.6823)" fill="white"/>
<line x1="258.349" y1="27.375" x2="258.349" y2="32.4531" stroke="white"/>
<line x1="260.323" y1="27.375" x2="260.323" y2="32.4531" stroke="white"/>
<line x1="262.298" y1="27.375" x2="262.298" y2="32.4531" stroke="white"/>
</svg>
