<svg width="17" height="18" viewBox="0 0 17 18" fill="none" xmlns="http://www.w3.org/2000/svg">
<path fill-rule="evenodd" clip-rule="evenodd" d="M8.05972 3.72745C5.4456 3.91045 3.38175 6.08907 3.38175 8.74973C3.38175 11.5303 5.63588 13.7845 8.41648 13.7845C10.6442 13.7845 12.5343 12.3374 13.1976 10.3321C12.6871 10.543 12.1277 10.6595 11.5415 10.6595C9.14441 10.6595 7.2012 8.71624 7.2012 6.31917C7.2012 5.34755 7.52072 4.45049 8.05972 3.72745ZM2.34009 8.74973C2.34009 5.39383 5.06058 2.67334 8.41648 2.67334C8.72871 2.67334 9.03577 2.69693 9.33589 2.74252C9.5435 2.77405 9.71187 2.92718 9.7629 3.13088C9.81393 3.33458 9.73763 3.549 9.56941 3.67469C8.76316 4.27705 8.24287 5.23729 8.24287 6.31917C8.24287 8.14095 9.7197 9.61778 11.5415 9.61778C12.3291 9.61778 13.0511 9.34237 13.6182 8.88212C13.7812 8.74987 14.0077 8.72836 14.1926 8.82758C14.3776 8.92679 14.4849 9.12733 14.4649 9.33626C14.1695 12.4172 11.5746 14.8261 8.41648 14.8261C5.06058 14.8261 2.34009 12.1056 2.34009 8.74973Z" fill="#24272C"/>
</svg>
